<?xml version="1.0" encoding="utf-8"?>
<!-- Generator: Adobe Illustrator 22.1.0, SVG Export Plug-In . SVG Version: 6.00 Build 0)  -->
<svg version="1.1" id="Слой_1" xmlns="http://www.w3.org/2000/svg" xmlns:xlink="http://www.w3.org/1999/xlink" x="0px" y="0px"
	 viewBox="0 0 29 19.2" style="enable-background:new 0 0 29 19.2;" xml:space="preserve">
<style type="text/css">
	.st0{enable-background:new    ;}
	.st1{fill:#FFFFFF;}
</style>
<g class="st0">
	<path class="st1" d="M2.5,10.7c0-1.8,0.3-3.3,0.9-4.5c0.6-1.2,1.3-2.2,2.1-3c0.8-0.8,1.7-1.3,2.7-1.7c1-0.3,1.8-0.5,2.6-0.5
		c0.9,0,1.5,0.2,1.8,0.7C13,2.1,13.2,2.6,13.2,3c0,0.7-0.2,1.2-0.6,1.6s-1.1,0.7-2.2,1c-0.8,0.2-1.5,0.5-2,1C7.9,7,7.6,7.8,7.6,8.7
		c0.4-0.2,1-0.3,1.7-0.3c0.7,0,1.3,0.1,1.8,0.4c0.5,0.3,1,0.6,1.3,1c0.3,0.4,0.6,0.9,0.8,1.5c0.2,0.6,0.3,1.2,0.3,1.8
		c0,0.7-0.1,1.4-0.4,2c-0.3,0.6-0.6,1.2-1.1,1.6s-1,0.9-1.6,1.1c-0.6,0.3-1.3,0.4-2.1,0.4c-0.7,0-1.4-0.1-2.1-0.4
		c-0.7-0.3-1.3-0.7-1.9-1.3c-0.6-0.6-1-1.4-1.3-2.4C2.7,13.2,2.5,12.1,2.5,10.7z M15.6,10.7c0-1.8,0.3-3.3,0.9-4.5
		c0.6-1.2,1.3-2.2,2.1-3c0.8-0.8,1.7-1.3,2.7-1.7c1-0.3,1.8-0.5,2.6-0.5c0.9,0,1.5,0.2,1.8,0.7c0.4,0.5,0.5,0.9,0.5,1.4
		c0,0.7-0.2,1.2-0.6,1.6c-0.4,0.4-1.1,0.7-2.2,1c-0.8,0.2-1.5,0.5-2,1s-0.8,1.2-0.8,2.2c0.4-0.2,1-0.3,1.7-0.3
		c0.7,0,1.3,0.1,1.8,0.4c0.5,0.3,1,0.6,1.3,1c0.3,0.4,0.6,0.9,0.8,1.5c0.2,0.6,0.3,1.2,0.3,1.8c0,0.7-0.1,1.4-0.4,2
		c-0.3,0.6-0.6,1.2-1.1,1.6c-0.5,0.5-1,0.9-1.6,1.1c-0.6,0.3-1.3,0.4-2.1,0.4c-0.7,0-1.4-0.1-2.1-0.4c-0.7-0.3-1.3-0.7-1.9-1.3
		c-0.6-0.6-1-1.4-1.3-2.4C15.7,13.2,15.6,12.1,15.6,10.7z"/>
</g>
</svg>
