<?xml version="1.0" encoding="utf-8"?>
<!-- Generator: Adobe Illustrator 22.1.0, SVG Export Plug-In . SVG Version: 6.00 Build 0)  -->
<svg version="1.1" id="Слой_1" xmlns="http://www.w3.org/2000/svg" xmlns:xlink="http://www.w3.org/1999/xlink" x="0px" y="0px"
	 viewBox="0 0 179.8 43.5" style="enable-background:new 0 0 179.8 43.5;" xml:space="preserve">
<style type="text/css">
	.st0{enable-background:new    ;}
	.st1{fill:#FDE428;}
	.st2{fill:#FFFFFF;}
</style>
<g class="st0">
	<path class="st1" d="M16.8,2.1c2.3,0,4.6,0.5,6.9,1.4c2.3,1,4.2,2.2,5.8,3.9l-4.6,5.5c-1-1.3-2.2-2.3-3.7-3
		c-1.4-0.7-2.8-1.1-4.3-1.1c-2.5,0-4.6,0.9-6.3,2.6s-2.5,3.9-2.5,6.5c0,2.6,0.8,4.8,2.5,6.6s3.8,2.6,6.3,2.6c1.3,0,2.7-0.3,4.1-1
		c1.4-0.7,2.7-1.6,3.8-2.7l4.7,4.9c-1.7,1.7-3.7,3.1-6.1,4.2c-2.3,1-4.6,1.6-7,1.6c-4.7,0-8.7-1.5-11.8-4.6S-0.1,22.6-0.1,18
		c0-4.5,1.6-8.3,4.8-11.3C7.9,3.6,12,2.1,16.8,2.1z"/>
	<path class="st1" d="M43.8,9.3c4,0,7.2,1.1,9.6,3.4c2.4,2.3,3.6,5.2,3.6,9c0,3.7-1.2,6.7-3.6,9S47.8,34,43.8,34
		c-4,0-7.2-1.1-9.6-3.4c-2.4-2.3-3.6-5.3-3.6-9c0-3.7,1.2-6.7,3.6-9C36.6,10.4,39.8,9.3,43.8,9.3z M43.8,15.4
		c-1.6,0-2.9,0.6-3.9,1.8c-1,1.2-1.5,2.7-1.5,4.5c0,1.9,0.5,3.4,1.5,4.6c1,1.2,2.3,1.7,3.9,1.7c1.6,0,2.9-0.6,3.9-1.7
		c1-1.2,1.5-2.7,1.5-4.6c0-1.9-0.5-3.4-1.5-4.5C46.7,16,45.4,15.4,43.8,15.4z"/>
	<path class="st1" d="M84.9,9.6v24.2h-7.8v-4c-1.7,2.9-4.3,4.3-7.9,4.3c-2.6,0-4.8-0.8-6.3-2.5c-1.6-1.7-2.4-3.9-2.4-6.7V9.6h7.8
		v13.1c0,1.4,0.4,2.6,1.1,3.4c0.7,0.8,1.7,1.2,3,1.2c1.5,0,2.6-0.6,3.5-1.6c0.8-1.1,1.3-2.4,1.3-4.1V9.6H84.9z"/>
	<path class="st1" d="M107,9.2c2.7,0,4.8,0.8,6.4,2.5c1.6,1.7,2.4,3.9,2.4,6.8v15.3h-7.7V20.7c0-1.4-0.4-2.5-1.1-3.3
		c-0.8-0.8-1.8-1.2-3.1-1.2c-1.4,0-2.5,0.4-3.4,1.3c-0.9,0.9-1.4,2.1-1.6,3.5v12.8h-7.8V9.6h7.8v4C100.6,10.7,103.3,9.3,107,9.2z"/>
	<path class="st1" d="M130.1,9.2c3.6,0,6.9,0.9,10,2.7l-2.7,5c-3-1.6-5.6-2.4-7.7-2.4c-1.6,0-2.4,0.6-2.4,1.7c0,0.6,0.4,1.1,1.3,1.5
		c0.9,0.4,1.9,0.8,3.2,1.1c1.3,0.3,2.5,0.7,3.8,1.2c1.2,0.5,2.3,1.3,3.2,2.4c0.9,1.1,1.3,2.4,1.3,4c0,2.4-0.9,4.3-2.8,5.7
		c-1.9,1.4-4.4,2-7.4,2c-4.3,0-7.9-1.1-10.9-3.4l2.5-4.9c2.9,2,5.7,3,8.6,3c1.8,0,2.7-0.6,2.7-1.7c0-0.6-0.4-1.2-1.3-1.6
		c-0.9-0.4-1.9-0.8-3.1-1.1c-1.2-0.3-2.5-0.7-3.7-1.2c-1.2-0.5-2.3-1.3-3.1-2.3c-0.9-1-1.3-2.4-1.3-4c0-2.4,0.9-4.3,2.7-5.7
		C124.8,9.9,127.2,9.2,130.1,9.2z"/>
	<path class="st1" d="M155.2,9.3c4.2,0,7.4,1.3,9.5,3.9c2.1,2.6,3,6.1,2.8,10.6h-17.1c0.4,1.4,1.1,2.5,2.1,3.3
		c1,0.8,2.2,1.2,3.6,1.2c2.2,0,4.2-0.8,5.8-2.5l4.1,4c-2.6,2.8-6.1,4.3-10.6,4.3c-3.9,0-7.1-1.1-9.4-3.4c-2.3-2.2-3.5-5.2-3.5-8.9
		c0-3.7,1.2-6.7,3.5-9C148.3,10.4,151.4,9.3,155.2,9.3z M150.2,19.6h9.7c0-1.5-0.4-2.6-1.3-3.5c-0.9-0.9-2-1.3-3.4-1.3
		c-1.3,0-2.4,0.4-3.3,1.3C151,16.9,150.5,18.1,150.2,19.6z"/>
	<path class="st1" d="M179.7,33.8h-7.8V0.5h7.8V33.8z"/>
</g>
<g>
	<path class="st2" d="M9.4,34.5c1.3,0,2.4,0.4,3.2,1.2c0.9,0.8,1.3,1.8,1.3,3c0,1.2-0.4,2.2-1.3,3.1S10.7,43,9.4,43S7,42.6,6.2,41.8
		C5.3,41,4.9,40,4.9,38.7c0-1.2,0.4-2.2,1.3-3C7,34.9,8.1,34.5,9.4,34.5z M9.4,36.3c-0.7,0-1.2,0.2-1.7,0.7
		c-0.5,0.5-0.7,1.1-0.7,1.8c0,0.7,0.2,1.3,0.7,1.8c0.5,0.5,1,0.7,1.7,0.7c0.6,0,1.2-0.2,1.6-0.7s0.7-1.1,0.7-1.8
		c0-0.7-0.2-1.3-0.7-1.8C10.6,36.5,10.1,36.3,9.4,36.3z"/>
	<path class="st2" d="M27.8,42.9h-2.2l-1.5-5.8l-1.6,5.8h-2.2l-2.7-8.4h2.3l1.6,6.2l1.6-6.2h2.1l1.6,6.2l1.6-6.2h2.2L27.8,42.9z"/>
	<path class="st2" d="M42.6,42.9h-1.9l-3.8-5.2v5.2h-2v-8.4h1.9l3.8,5.2v-5.2h2V42.9z"/>
	<path class="st2" d="M58.4,40.2v2.7h-2.1v-2.7l-3.1-5.7h2.1l2,3.7l2-3.7h2.1L58.4,40.2z"/>
	<path class="st2" d="M69.6,34.5c1.3,0,2.4,0.4,3.2,1.2c0.9,0.8,1.3,1.8,1.3,3c0,1.2-0.4,2.2-1.3,3.1S70.9,43,69.6,43
		s-2.4-0.4-3.2-1.2c-0.9-0.8-1.3-1.8-1.3-3.1c0-1.2,0.4-2.2,1.3-3C67.2,34.9,68.3,34.5,69.6,34.5z M69.6,36.3
		c-0.7,0-1.2,0.2-1.7,0.7c-0.5,0.5-0.7,1.1-0.7,1.8c0,0.7,0.2,1.3,0.7,1.8c0.5,0.5,1,0.7,1.7,0.7c0.6,0,1.2-0.2,1.6-0.7
		s0.7-1.1,0.7-1.8c0-0.7-0.2-1.3-0.7-1.8C70.8,36.5,70.2,36.3,69.6,36.3z"/>
	<path class="st2" d="M86.3,34.5v4.9c0,1.1-0.3,2-1,2.6c-0.7,0.7-1.6,1-2.8,1c-1.2,0-2.1-0.3-2.8-1s-1-1.5-1-2.6v-4.9h2.1v4.9
		c0,0.6,0.2,1,0.5,1.3c0.3,0.3,0.7,0.5,1.3,0.5c0.5,0,0.9-0.2,1.2-0.5c0.3-0.3,0.5-0.8,0.5-1.3v-4.9H86.3z"/>
	<path class="st2" d="M96.4,42.9l-1.2-2.4h-0.1h-1.6v2.4h-2.1v-8.4h3.7c1.1,0,2,0.3,2.6,0.8s0.9,1.2,0.9,2.2c0,1.3-0.5,2.2-1.5,2.7
		l1.7,2.8H96.4z M93.5,38.9h1.6c0.5,0,0.8-0.1,1.1-0.3c0.3-0.2,0.4-0.6,0.4-1c0-0.4-0.1-0.8-0.4-1c-0.3-0.2-0.6-0.3-1.1-0.3h-1.6
		V38.9z"/>
	<path class="st2" d="M113.7,34.5c0.6,0,1.2,0.1,1.8,0.4s1.1,0.6,1.5,1l-1.2,1.5c-0.3-0.3-0.6-0.6-1-0.8c-0.4-0.2-0.8-0.3-1.1-0.3
		c-0.7,0-1.2,0.2-1.7,0.7c-0.4,0.5-0.7,1-0.7,1.7c0,0.7,0.2,1.3,0.7,1.8c0.4,0.5,1,0.7,1.7,0.7c0.3,0,0.7-0.1,1.1-0.3
		c0.4-0.2,0.7-0.4,1-0.7l1.2,1.3c-0.5,0.5-1,0.8-1.6,1.1s-1.2,0.4-1.8,0.4c-1.3,0-2.3-0.4-3.1-1.2c-0.8-0.8-1.2-1.9-1.2-3.1
		c0-1.2,0.4-2.2,1.3-3S112.5,34.5,113.7,34.5z"/>
	<path class="st2" d="M125.4,34.5c1.3,0,2.4,0.4,3.2,1.2c0.9,0.8,1.3,1.8,1.3,3c0,1.2-0.4,2.2-1.3,3.1c-0.9,0.8-1.9,1.2-3.2,1.2
		s-2.4-0.4-3.2-1.2c-0.9-0.8-1.3-1.8-1.3-3.1c0-1.2,0.4-2.2,1.3-3C123.1,34.9,124.2,34.5,125.4,34.5z M125.5,36.3
		c-0.6,0-1.2,0.2-1.7,0.7c-0.5,0.5-0.7,1.1-0.7,1.8c0,0.7,0.2,1.3,0.7,1.8s1,0.7,1.7,0.7c0.6,0,1.2-0.2,1.6-0.7
		c0.4-0.5,0.7-1.1,0.7-1.8c0-0.7-0.2-1.3-0.7-1.8C126.7,36.5,126.1,36.3,125.5,36.3z"/>
	<path class="st2" d="M142.1,34.5v4.9c0,1.1-0.3,2-1,2.6s-1.6,1-2.8,1c-1.2,0-2.1-0.3-2.8-1c-0.7-0.7-1-1.5-1-2.6v-4.9h2.1v4.9
		c0,0.6,0.2,1,0.5,1.3s0.7,0.5,1.3,0.5c0.5,0,0.9-0.2,1.2-0.5c0.3-0.3,0.5-0.8,0.5-1.3v-4.9H142.1z"/>
	<path class="st2" d="M152.2,42.9l-1.2-2.4h-0.1h-1.6v2.4h-2.1v-8.4h3.7c1.1,0,2,0.3,2.6,0.8s0.9,1.2,0.9,2.2c0,1.3-0.5,2.2-1.5,2.7
		l1.7,2.8H152.2z M149.3,38.9h1.6c0.5,0,0.8-0.1,1.1-0.3c0.3-0.2,0.4-0.6,0.4-1c0-0.4-0.1-0.8-0.4-1c-0.3-0.2-0.6-0.3-1.1-0.3h-1.6
		V38.9z"/>
	<path class="st2" d="M162.6,34.4c1.2,0,2.3,0.3,3.3,0.9l-0.8,1.7c-0.4-0.3-0.9-0.5-1.4-0.6c-0.5-0.2-0.9-0.2-1.3-0.2
		c-0.6,0-0.9,0.2-0.9,0.6c0,0.3,0.2,0.5,0.5,0.6c0.3,0.2,0.7,0.3,1.1,0.4c0.4,0.1,0.9,0.3,1.3,0.4c0.4,0.2,0.8,0.4,1.1,0.8
		c0.3,0.4,0.5,0.8,0.5,1.4c0,0.8-0.3,1.4-0.9,1.9c-0.6,0.5-1.4,0.7-2.4,0.7c-0.7,0-1.4-0.1-2-0.4s-1.3-0.6-1.8-1l0.8-1.6
		c0.4,0.4,0.9,0.7,1.5,0.9c0.6,0.2,1.1,0.4,1.5,0.4c0.3,0,0.6-0.1,0.8-0.2c0.2-0.1,0.3-0.3,0.3-0.5c0-0.2-0.1-0.4-0.3-0.6
		s-0.5-0.3-0.8-0.3s-0.7-0.2-1.1-0.3c-0.4-0.1-0.7-0.3-1.1-0.4c-0.3-0.2-0.6-0.4-0.8-0.7c-0.2-0.3-0.3-0.7-0.3-1.2
		c0-0.8,0.3-1.4,0.9-1.8C160.8,34.7,161.6,34.4,162.6,34.4z"/>
	<path class="st2" d="M177.1,36.2h-4.4v1.7h4v1.7h-4v1.7h4.5v1.7h-6.6v-8.4h6.5V36.2z"/>
</g>
</svg>
