<?xml version="1.0" encoding="utf-8"?>
<!-- Generator: Adobe Illustrator 22.1.0, SVG Export Plug-In . SVG Version: 6.00 Build 0)  -->
<svg version="1.1" id="Слой_1" xmlns="http://www.w3.org/2000/svg" xmlns:xlink="http://www.w3.org/1999/xlink" x="0px" y="0px"
	 viewBox="0 0 229.3 64.8" style="enable-background:new 0 0 229.3 64.8;" xml:space="preserve">
<style type="text/css">
	.st0{enable-background:new    ;}
</style>
<g class="st0">
	<path d="M42.8,13.1l0,51.7c-6-6.4-12-12.8-17.9-19.2C18.9,39.2,13,32.8,6.9,26.4c-0.2-0.3-0.5-0.6-0.7-0.9
		c-0.2-0.3-0.4-0.6-0.7-0.9c0,0.4,0.1,0.8,0.1,1.1c0,0.4,0.1,0.8,0.1,1.1l0,35.8l-5.8,0l0-51.7C6,17.5,12,24,17.9,30.4
		c5.9,6.5,11.9,13,17.9,19.6c0.2,0.3,0.5,0.6,0.7,0.9c0.2,0.3,0.4,0.6,0.7,0.9c0-0.4-0.1-0.8-0.1-1.1c0-0.4-0.1-0.8-0.1-1.1l0-36.5
		L42.8,13.1z"/>
	<path d="M54.3,37.8c0-3.4,0.7-6.7,2-9.8c1.3-3.1,3.1-5.8,5.4-8.1c2.3-2.3,4.9-4.1,8-5.5c3-1.3,6.3-2,9.7-2c3.4,0,6.6,0.7,9.7,2
		c3.1,1.3,5.7,3.2,8,5.5c2.3,2.3,4.1,5,5.4,8.1c1.3,3.1,2,6.3,2,9.8c0,3.5-0.7,6.8-2,9.8c-1.3,3.1-3.1,5.7-5.4,8
		c-2.3,2.3-5,4.1-8,5.4c-3.1,1.3-6.3,2-9.7,2c-3.5,0-6.7-0.6-9.7-2c-3-1.3-5.7-3.1-8-5.4c-2.3-2.3-4.1-5-5.4-8
		C55,44.6,54.3,41.3,54.3,37.8z M60.1,37.8c0,2.7,0.5,5.3,1.5,7.7c1,2.4,2.4,4.4,4.1,6.2s3.8,3.2,6.1,4.2c2.3,1,4.8,1.5,7.5,1.5
		c2.7,0,5.2-0.5,7.5-1.6c2.3-1,4.4-2.4,6.1-4.2s3.1-3.8,4.1-6.2c1-2.4,1.5-4.9,1.5-7.7c0-2.7-0.5-5.3-1.5-7.7
		c-1-2.4-2.4-4.5-4.1-6.2c-1.8-1.8-3.8-3.2-6.1-4.2c-2.3-1-4.8-1.5-7.5-1.5c-2.7,0-5.2,0.5-7.5,1.6c-2.3,1-4.4,2.5-6.1,4.2
		c-1.8,1.8-3.1,3.9-4.1,6.3C60.6,32.6,60.1,35.1,60.1,37.8z"/>
	<path d="M113.7,62.4l0-49.5l30.2,0l0,5.6l-24.4,0l0,16.2l21.6,0l0,5.6l-21.6,0l0,16.5l25.4,0l0,5.6L113.7,62.4z M127.2,9.4
		c1.1-1.6,2.1-3.1,3.2-4.7c1-1.6,2.1-3.1,3.2-4.7l5.9,0c-1.4,1.6-2.7,3.1-4,4.7c-1.3,1.6-2.7,3.1-4,4.7L127.2,9.4z"/>
	<path d="M157.9,10.6c4.3,5.6,8.6,11.2,12.8,16.8c4.3,5.6,8.5,11.2,12.8,16.8c4.3-5.6,8.6-11.2,12.8-16.8
		c4.2-5.6,8.5-11.2,12.8-16.8l0,51.7l-5.8,0l0-33.2c0-0.4,0.1-0.8,0.1-1.1c0-0.4,0.1-0.8,0.1-1.1c-3.1,4.6-6.3,9.1-9.8,13.5
		c-3.5,4.4-6.9,8.8-10.2,13.2c-3.1-4.1-6.3-8.3-9.4-12.4c-3.1-4.1-6.3-8.2-9.4-12.4l-1.3-1.9c0,0.4,0.1,0.8,0.1,1.1
		c0,0.4,0.1,0.8,0.1,1.1l0,33.2l-5.8,0L157.9,10.6z"/>
	<path d="M223.5,12.8l5.8,0l0,49.5l-5.8,0L223.5,12.8z"/>
</g>
</svg>
